name rise34.3697peak60.0498fall86.3158.mot
datacolumns 19
datarows 27
range 18.19493200000000 18.23826200000000
endheader
time	ground_force1_vx	ground_force1_vy	ground_force1_vz	ground_force1_px	ground_force1_py	ground_force1_pz	ground_force2_vx	ground_force2_vy	ground_force2_vz	ground_force2_px	ground_force2_py	ground_force2_pz	ground_torque1_x	ground_torque1_y	ground_torque1_z	ground_torque2_x	ground_torque2_y	ground_torque2_z	
18.19493200000000	55.07811600000000	779.93701199999998	62.84176100000000	0.39901900000000	0.00000000000000	0.13222800000000	0.00000000000000	0.00000000000000	0.00000000000000	0.00000000000000	0.00000000000000	0.00000000000000	0.00000000000000	33.82893200000000	0.00000000000000	0.00000000000000	0.00000000000000	0.00000000000000	
18.19660000000000	54.31955900000000	782.29387499999996	63.05464100000000	0.39766500000000	0.00000000000000	0.13229100000000	0.00000000000000	0.00000000000000	0.00000000000000	0.00000000000000	0.00000000000000	0.00000000000000	0.00000000000000	34.01147700000000	0.00000000000000	0.00000000000000	0.00000000000000	0.00000000000000	
18.19826800000000	53.56535800000000	784.49885400000005	63.26702200000000	0.39632400000000	0.00000000000000	0.13235600000000	0.00000000000000	0.00000000000000	0.00000000000000	0.00000000000000	0.00000000000000	0.00000000000000	0.00000000000000	34.19342800000000	0.00000000000000	0.00000000000000	0.00000000000000	0.00000000000000	
18.19993500000000	52.81604600000000	786.55095400000005	63.47837200000000	0.39499600000000	0.00000000000000	0.13242200000000	0.00000000000000	0.00000000000000	0.00000000000000	0.00000000000000	0.00000000000000	0.00000000000000	0.00000000000000	34.37434400000000	0.00000000000000	0.00000000000000	0.00000000000000	0.00000000000000	
18.20159800000000	52.07209200000000	788.44940199999996	63.68809400000000	0.39368100000000	0.00000000000000	0.13248900000000	0.00000000000000	0.00000000000000	0.00000000000000	0.00000000000000	0.00000000000000	0.00000000000000	0.00000000000000	34.55374600000000	0.00000000000000	0.00000000000000	0.00000000000000	0.00000000000000	
18.20326100000000	51.33390000000000	790.19366000000002	63.89553300000000	0.39237900000000	0.00000000000000	0.13255800000000	0.00000000000000	0.00000000000000	0.00000000000000	0.00000000000000	0.00000000000000	0.00000000000000	0.00000000000000	34.73111700000000	0.00000000000000	0.00000000000000	0.00000000000000	0.00000000000000	
18.20493400000000	50.60181900000000	791.78343199999995	64.09998299999999	0.39109000000000	0.00000000000000	0.13262700000000	0.00000000000000	0.00000000000000	0.00000000000000	0.00000000000000	0.00000000000000	0.00000000000000	0.00000000000000	34.90590700000000	0.00000000000000	0.00000000000000	0.00000000000000	0.00000000000000	
18.20660000000000	49.87614200000000	793.21867399999996	64.30069300000000	0.38981500000000	0.00000000000000	0.13269800000000	0.00000000000000	0.00000000000000	0.00000000000000	0.00000000000000	0.00000000000000	0.00000000000000	0.00000000000000	35.07754200000000	0.00000000000000	0.00000000000000	0.00000000000000	0.00000000000000	
18.20826100000000	49.15711200000000	794.49959899999999	64.49687500000000	0.38855100000000	0.00000000000000	0.13276900000000	0.00000000000000	0.00000000000000	0.00000000000000	0.00000000000000	0.00000000000000	0.00000000000000	0.00000000000000	35.24542300000000	0.00000000000000	0.00000000000000	0.00000000000000	0.00000000000000	
18.20993500000000	48.44492400000000	795.62668299999996	64.68771200000000	0.38730100000000	0.00000000000000	0.13284200000000	0.00000000000000	0.00000000000000	0.00000000000000	0.00000000000000	0.00000000000000	0.00000000000000	0.00000000000000	35.40893600000000	0.00000000000000	0.00000000000000	0.00000000000000	0.00000000000000	
18.21160000000000	47.73973100000000	796.60067400000003	64.87236000000000	0.38606200000000	0.00000000000000	0.13291500000000	0.00000000000000	0.00000000000000	0.00000000000000	0.00000000000000	0.00000000000000	0.00000000000000	0.00000000000000	35.56745500000000	0.00000000000000	0.00000000000000	0.00000000000000	0.00000000000000	
18.21326600000000	47.04164800000000	797.42258700000002	65.04996500000000	0.38483500000000	0.00000000000000	0.13298800000000	0.00000000000000	0.00000000000000	0.00000000000000	0.00000000000000	0.00000000000000	0.00000000000000	0.00000000000000	35.72034600000000	0.00000000000000	0.00000000000000	0.00000000000000	0.00000000000000	
18.21492900000000	46.35075300000000	798.09371399999998	65.21966200000000	0.38361900000000	0.00000000000000	0.13306200000000	0.00000000000000	0.00000000000000	0.00000000000000	0.00000000000000	0.00000000000000	0.00000000000000	0.00000000000000	35.86697200000000	0.00000000000000	0.00000000000000	0.00000000000000	0.00000000000000	
18.21659400000000	45.66709500000000	798.61561900000004	65.38058400000000	0.38241300000000	0.00000000000000	0.13313700000000	0.00000000000000	0.00000000000000	0.00000000000000	0.00000000000000	0.00000000000000	0.00000000000000	0.00000000000000	36.00670100000000	0.00000000000000	0.00000000000000	0.00000000000000	0.00000000000000	
18.21826300000000	44.99069400000000	798.99014399999999	65.53187300000000	0.38121800000000	0.00000000000000	0.13321100000000	0.00000000000000	0.00000000000000	0.00000000000000	0.00000000000000	0.00000000000000	0.00000000000000	0.00000000000000	36.13890700000000	0.00000000000000	0.00000000000000	0.00000000000000	0.00000000000000	
18.21993500000000	44.32154800000000	799.21939699999996	65.67268300000001	0.38003200000000	0.00000000000000	0.13328600000000	0.00000000000000	0.00000000000000	0.00000000000000	0.00000000000000	0.00000000000000	0.00000000000000	0.00000000000000	36.26297700000000	0.00000000000000	0.00000000000000	0.00000000000000	0.00000000000000	
18.22159300000000	43.65963700000000	799.30576099999996	65.80218900000000	0.37885500000000	0.00000000000000	0.13336100000000	0.00000000000000	0.00000000000000	0.00000000000000	0.00000000000000	0.00000000000000	0.00000000000000	0.00000000000000	36.37831400000000	0.00000000000000	0.00000000000000	0.00000000000000	0.00000000000000	
18.22326800000000	43.00492200000000	799.25188000000003	65.91959100000000	0.37768500000000	0.00000000000000	0.13343600000000	0.00000000000000	0.00000000000000	0.00000000000000	0.00000000000000	0.00000000000000	0.00000000000000	0.00000000000000	36.48434300000000	0.00000000000000	0.00000000000000	0.00000000000000	0.00000000000000	
18.22493200000000	42.35735500000000	799.06065899999999	66.02412500000000	0.37652300000000	0.00000000000000	0.13351000000000	0.00000000000000	0.00000000000000	0.00000000000000	0.00000000000000	0.00000000000000	0.00000000000000	0.00000000000000	36.58051400000000	0.00000000000000	0.00000000000000	0.00000000000000	0.00000000000000	
18.22660200000000	41.71687500000000	798.73525299999994	66.11506400000000	0.37536800000000	0.00000000000000	0.13358500000000	0.00000000000000	0.00000000000000	0.00000000000000	0.00000000000000	0.00000000000000	0.00000000000000	0.00000000000000	36.66630500000000	0.00000000000000	0.00000000000000	0.00000000000000	0.00000000000000	
18.22826600000000	41.08342000000000	798.27906599999994	66.19172500000001	0.37421800000000	0.00000000000000	0.13365900000000	0.00000000000000	0.00000000000000	0.00000000000000	0.00000000000000	0.00000000000000	0.00000000000000	0.00000000000000	36.74122900000000	0.00000000000000	0.00000000000000	0.00000000000000	0.00000000000000	
18.22993300000000	40.45691900000000	797.69573500000001	66.25347700000000	0.37307300000000	0.00000000000000	0.13373200000000	0.00000000000000	0.00000000000000	0.00000000000000	0.00000000000000	0.00000000000000	0.00000000000000	0.00000000000000	36.80483300000000	0.00000000000000	0.00000000000000	0.00000000000000	0.00000000000000	
18.23160000000000	39.83730700000000	796.98912399999995	66.29974199999999	0.37193300000000	0.00000000000000	0.13380500000000	0.00000000000000	0.00000000000000	0.00000000000000	0.00000000000000	0.00000000000000	0.00000000000000	0.00000000000000	36.85670500000000	0.00000000000000	0.00000000000000	0.00000000000000	0.00000000000000	
18.23326700000000	39.22451500000000	796.16331200000002	66.33000000000000	0.37079600000000	0.00000000000000	0.13387700000000	0.00000000000000	0.00000000000000	0.00000000000000	0.00000000000000	0.00000000000000	0.00000000000000	0.00000000000000	36.89647400000000	0.00000000000000	0.00000000000000	0.00000000000000	0.00000000000000	
18.23493500000000	38.61848300000000	795.22257999999999	66.34379600000000	0.36966200000000	0.00000000000000	0.13394900000000	0.00000000000000	0.00000000000000	0.00000000000000	0.00000000000000	0.00000000000000	0.00000000000000	0.00000000000000	36.92381400000000	0.00000000000000	0.00000000000000	0.00000000000000	0.00000000000000	
18.23659800000000	38.01915300000000	794.17140199999994	66.34073800000000	0.36853000000000	0.00000000000000	0.13401900000000	0.00000000000000	0.00000000000000	0.00000000000000	0.00000000000000	0.00000000000000	0.00000000000000	0.00000000000000	36.93844700000000	0.00000000000000	0.00000000000000	0.00000000000000	0.00000000000000	
18.23826200000000	37.42647900000000	793.01442999999995	66.32050599999999	0.36739900000000	0.00000000000000	0.13408900000000	0.00000000000000	0.00000000000000	0.00000000000000	0.00000000000000	0.00000000000000	0.00000000000000	0.00000000000000	36.94014100000000	0.00000000000000	0.00000000000000	0.00000000000000	0.00000000000000	
